<?xml version="1.0" encoding="utf-8"?>
<!-- Generator: Adobe Illustrator 24.0.0, SVG Export Plug-In . SVG Version: 6.00 Build 0)  -->
<svg version="1.2" baseProfile="tiny" id="Layer_1" xmlns="http://www.w3.org/2000/svg" xmlns:xlink="http://www.w3.org/1999/xlink"
	 x="0px" y="0px" viewBox="0 0 1000 45.96" xml:space="preserve">
<g>
	<g>
		<polygon fill="none" stroke="#000000" stroke-width="2" stroke-linejoin="round" stroke-miterlimit="10" points="480.54,12.83 
			499.86,1.45 519.46,12.83 519.46,33.1 500,44.65 480.54,33.1 		"/>
		<polygon fill="none" stroke="#000000" stroke-width="2" stroke-linejoin="round" stroke-miterlimit="10" points="499.86,10.86 
			499.86,1.45 519.46,12.83 		"/>
		<polygon fill="none" stroke="#000000" stroke-width="2" stroke-linejoin="round" stroke-miterlimit="10" points="510.22,29.42 
			519.46,12.83 499.86,10.86 		"/>
		<polygon fill="none" stroke="#000000" stroke-width="2" stroke-linejoin="round" stroke-miterlimit="10" points="510.22,29.42 
			489.78,29.42 499.86,10.86 		"/>
		<polygon fill="none" stroke="#000000" stroke-width="2" stroke-linejoin="round" stroke-miterlimit="10" points="480.54,12.83 
			499.86,10.86 499.86,1.45 		"/>
		<polyline fill="none" stroke="#000000" stroke-width="2" stroke-linejoin="round" stroke-miterlimit="10" points="519.46,33.1 
			510.22,29.42 500,44.65 489.78,29.42 480.54,33.1 480.54,12.83 489.78,29.42 		"/>
	</g>
	<g>
		<path d="M713.04,20.88l231.19,3.5l-231.19,3.5c-1.93,0.03-3.52-1.51-3.55-3.45c-0.03-1.93,1.51-3.52,3.45-3.55
			C712.96,20.88,713.01,20.88,713.04,20.88z"/>
		<g>
			<line fill="none" stroke="#000000" stroke-width="2" stroke-linejoin="round" x1="544.49" y1="24.38" x2="667.3" y2="24.38"/>
			<g>
				<polygon points="554.48,17.73 546.6,24.38 554.48,31.03 531.57,24.38 				"/>
				<polygon fill="#FFFFFF" points="551.24,19.66 534.09,24.38 545.39,24.38 				"/>
			</g>
			<g>
				<path fill="#666666" d="M667.83,24.38c2.28-1.56,4.19-3.62,5.68-5.91h-10.88c-1.46,2.47-3.74,4.41-6.16,5.91H667.83z"/>
				<path fill="#A6A6A6" d="M656.47,24.38c2.44,1.49,4.62,3.5,6.16,5.92h10.85c-1.53-2.34-3.38-4.38-5.65-5.92H656.47z"/>
				<path d="M661.99,18.47c-1.46,2.47-3.74,4.41-6.16,5.91c2.44,1.49,4.62,3.5,6.16,5.92h1.46c-1.53-2.34-3.38-4.38-5.65-5.92
					c2.28-1.56,4.19-3.62,5.68-5.91H661.99z"/>
				<path d="M665.51,18.47c-1.46,2.47-3.74,4.41-6.15,5.91c2.44,1.49,4.62,3.5,6.15,5.92h1.46c-1.53-2.34-3.38-4.38-5.65-5.92
					c2.28-1.56,4.19-3.62,5.68-5.91H665.51z"/>
				<path d="M669.03,18.47c-1.46,2.47-3.74,4.41-6.15,5.91c2.44,1.49,4.62,3.5,6.15,5.92h1.46c-1.53-2.34-3.38-4.38-5.65-5.92
					c2.28-1.56,4.19-3.62,5.68-5.91H669.03z"/>
				<path d="M672.55,18.47c-1.46,2.47-3.74,4.41-6.15,5.91c2.44,1.49,4.62,3.5,6.15,5.92h1.46c-1.53-2.34-3.38-4.38-5.65-5.92
					c2.28-1.56,4.19-3.62,5.68-5.91H672.55z"/>
			</g>
		</g>
		<g>
			
				<polygon fill="none" stroke="#000000" stroke-width="2" stroke-linecap="round" stroke-linejoin="round" stroke-miterlimit="10" points="
				691.12,13.02 681.64,27.45 699.08,33.08 			"/>
			
				<polygon fill="none" stroke="#000000" stroke-width="2" stroke-linecap="round" stroke-linejoin="round" stroke-miterlimit="10" points="
				691.12,13.02 701.06,21.32 699.08,33.08 			"/>
		</g>
	</g>
	<g>
		<path d="M286.96,27.88l-231.19-3.5l231.19-3.5c1.93-0.03,3.52,1.51,3.55,3.45c0.03,1.93-1.51,3.52-3.45,3.55
			C287.04,27.88,286.99,27.88,286.96,27.88z"/>
		<g>
			<line fill="none" stroke="#000000" stroke-width="2" stroke-linejoin="round" x1="455.51" y1="24.38" x2="332.7" y2="24.38"/>
			<g>
				<polygon points="445.52,31.03 453.4,24.38 445.52,17.73 468.43,24.38 				"/>
				<polygon fill="#FFFFFF" points="448.76,29.1 465.91,24.38 454.61,24.38 				"/>
			</g>
			<g>
				<path fill="#666666" d="M332.17,24.38c-2.28,1.56-4.19,3.62-5.68,5.91h10.88c1.46-2.47,3.74-4.41,6.16-5.91H332.17z"/>
				<path fill="#A6A6A6" d="M343.53,24.38c-2.44-1.49-4.62-3.5-6.16-5.92h-10.85c1.53,2.34,3.38,4.38,5.65,5.92H343.53z"/>
				<path d="M338.01,30.29c1.46-2.47,3.74-4.41,6.16-5.91c-2.44-1.49-4.62-3.5-6.16-5.92h-1.46c1.53,2.34,3.38,4.38,5.65,5.92
					c-2.28,1.56-4.19,3.62-5.68,5.91H338.01z"/>
				<path d="M334.49,30.29c1.46-2.47,3.74-4.41,6.15-5.91c-2.44-1.49-4.62-3.5-6.15-5.92h-1.46c1.53,2.34,3.38,4.38,5.65,5.92
					c-2.28,1.56-4.19,3.62-5.68,5.91H334.49z"/>
				<path d="M330.97,30.29c1.46-2.47,3.74-4.41,6.15-5.91c-2.44-1.49-4.62-3.5-6.15-5.92h-1.46c1.53,2.34,3.38,4.38,5.65,5.92
					c-2.28,1.56-4.19,3.62-5.68,5.91H330.97z"/>
				<path d="M327.45,30.29c1.46-2.47,3.74-4.41,6.15-5.91c-2.44-1.49-4.62-3.5-6.15-5.92h-1.46c1.53,2.34,3.38,4.38,5.65,5.92
					c-2.28,1.56-4.19,3.62-5.68,5.91H327.45z"/>
			</g>
		</g>
		<g>
			
				<polygon fill="none" stroke="#000000" stroke-width="2" stroke-linecap="round" stroke-linejoin="round" stroke-miterlimit="10" points="
				308.88,13.02 318.36,27.45 300.92,33.08 			"/>
			
				<polygon fill="none" stroke="#000000" stroke-width="2" stroke-linecap="round" stroke-linejoin="round" stroke-miterlimit="10" points="
				308.88,13.02 298.94,21.32 300.92,33.08 			"/>
		</g>
	</g>
</g>
</svg>
